<svg width="319" height="133" viewBox="0 0 319 133" fill="none" xmlns="http://www.w3.org/2000/svg">
<path d="M27.088 31.7455L34.3974 27.7087C34.8274 30.3291 37.1922 36.1646 43.2118 38.5442L27.7329 46.8301L18.7036 41.9435C17.772 43.0766 15.7798 46.1077 15.2639 48.3173L23.2183 52.9914V78.274L15.0489 82.9481C15.4788 84.3645 16.8117 87.6647 18.7036 89.5344L27.303 84.8603L46.2215 95.4832C47.0815 95.979 48.5434 97.6078 47.5114 100.157L41.0619 110.355L38.4821 106.531L26.658 99.9449L16.1238 105.469C6.14854 98.3302 1.21824 84.5062 0 78.4865L10.7492 72.1127V58.5153L0 52.5665C1.89186 40.8387 11.5375 29.6917 16.1238 25.5841L27.088 31.7455Z" fill="#004F71"/>
<path d="M79.4385 31.7455L72.1251 27.7087C71.6949 30.3291 69.3288 36.1646 63.306 38.5442L78.7932 46.8301L87.8273 41.9435C88.7594 43.0766 90.7527 46.1077 91.2689 48.3173L83.3103 52.9914V78.274L91.484 82.9481C91.0538 84.3645 89.7202 87.6647 87.8273 89.5344L79.2234 84.8603L60.2946 95.4832C59.4342 95.979 58.4769 97.6078 59.5094 100.157L66.1775 110.355L68.0382 106.531L79.8687 99.9449L90.4085 105.469C100.389 98.3302 105.322 84.5062 106.541 78.4865L95.786 72.1127V58.5153L106.541 52.5665C104.648 40.8387 94.9973 29.6917 90.4085 25.5841L79.4385 31.7455Z" fill="#004F71"/>
<path d="M54.8145 53.4149V42.0038L75.2735 53.6262V63.7694H65.044V58.9091L61.421 57.0073L54.8145 53.4149Z" fill="#784212"/>
<path d="M30.8809 78.4417V53.7236L51.7259 42.0038V53.5105L41.6257 59.0508V72.0491L51.7259 77.8025V89.7353L30.8809 78.4417Z" fill="#784212"/>
<path d="M75.2735 78.3869V66.8242H55.4538L65.044 70.0361V71.9632L54.8145 77.7445V89.7354L75.2735 78.3869Z" fill="#6D6D6D"/>
<path d="M44.833 14.4998C47.0314 11.2632 51.5676 3.69604 53.5228 0C55.3332 3.55388 59.5622 11.4293 61.9954 14.4998C79.1573 41.7936 28.9738 42.2201 44.833 14.4998Z" fill="#004F71"/>
<path d="M44.833 112.254C47.0314 109.017 51.5676 101.45 53.5228 97.7543C55.3332 101.308 59.5622 109.184 61.9954 112.254C79.1573 139.548 28.9738 139.974 44.833 112.254Z" fill="#004F71"/>
<path d="M60.4513 120.262C64.2736 117.301 62.7871 114.763 61.7254 113.282L58.5402 108.206L55.5674 102.707L53.6562 98.8998L54.2933 109.687C54.5056 112.648 54.0809 122.8 60.4513 120.262Z" fill="#376DA9"/>
<path d="M60.4513 22.1259C64.2736 19.1648 62.7871 16.6267 61.7254 15.1462L58.5402 10.07L55.5674 4.57083L53.6562 0.763702L54.2933 11.5506C54.5056 14.5117 54.0809 24.664 60.4513 22.1259Z" fill="#376DA9"/>
<g clip-path="url(#paint0_diamond_255_3_clip_path)" data-figma-skip-parse="true"><g transform="matrix(0.0769561 -6.99703e-10 -3.40916e-06 0.0123721 204.448 67.4537)"><rect x="0" y="0" width="1556.22" height="1593.16" fill="url(#paint0_diamond_255_3)" opacity="1" shape-rendering="crispEdges"/><rect x="0" y="0" width="1556.22" height="1593.16" transform="scale(1 -1)" fill="url(#paint0_diamond_255_3)" opacity="1" shape-rendering="crispEdges"/><rect x="0" y="0" width="1556.22" height="1593.16" transform="scale(-1 1)" fill="url(#paint0_diamond_255_3)" opacity="1" shape-rendering="crispEdges"/><rect x="0" y="0" width="1556.22" height="1593.16" transform="scale(-1)" fill="url(#paint0_diamond_255_3)" opacity="1" shape-rendering="crispEdges"/></g></g><path d="M122.087 73.989C120.392 73.989 118.947 73.6375 117.751 72.9343C116.556 72.2312 115.638 71.2546 114.997 70.0046C114.365 68.7546 114.048 67.3054 114.048 65.657V65.071C114.048 63.3679 114.365 61.8679 114.997 60.571C115.63 59.2742 116.525 58.2625 117.681 57.5359C118.845 56.8015 120.22 56.4343 121.806 56.4343C123.033 56.4343 124.185 56.6023 125.263 56.9382C126.341 57.2742 127.279 57.7781 128.076 58.45V62.2351H125.544L125.064 59.95C124.759 59.6843 124.349 59.4734 123.833 59.3171C123.318 59.1531 122.728 59.071 122.064 59.071C121.111 59.071 120.287 59.325 119.591 59.8328C118.904 60.3328 118.376 61.032 118.009 61.9304C117.642 62.821 117.458 63.8601 117.458 65.0476V65.657C117.458 66.8132 117.638 67.821 117.997 68.6804C118.365 69.532 118.9 70.1921 119.603 70.6609C120.306 71.1296 121.169 71.364 122.193 71.364C122.794 71.364 123.345 71.3093 123.845 71.2C124.353 71.0828 124.771 70.9421 125.099 70.7781V67.8835L122.662 67.696V65.2937H128.533V72.196C127.775 72.7351 126.861 73.1687 125.79 73.4968C124.728 73.825 123.494 73.989 122.087 73.989ZM130.735 73.7429V71.6921L132.552 71.3406V59.0945L130.735 58.7429V56.6804H143.977V61.2859H141.352L141.2 59.3171H135.974V63.6062H141.751V66.2429H135.974V71.1179H141.481L141.634 69.0789H144.235V73.7429H130.735ZM154.36 73.989C153.211 73.989 152.164 73.7742 151.219 73.3445C150.274 72.9148 149.457 72.3132 148.77 71.5398C148.09 70.7585 147.567 69.8445 147.2 68.7976C146.832 67.7429 146.649 66.5906 146.649 65.3406V65.0828C146.649 63.8406 146.832 62.696 147.2 61.6492C147.567 60.5945 148.09 59.6765 148.77 58.8953C149.45 58.114 150.262 57.5085 151.207 57.0789C152.153 56.6492 153.2 56.4343 154.348 56.4343C155.504 56.4343 156.559 56.6492 157.512 57.0789C158.465 57.5085 159.286 58.114 159.973 58.8953C160.661 59.6765 161.188 60.5945 161.555 61.6492C161.93 62.696 162.118 63.8406 162.118 65.0828V65.3406C162.118 66.5906 161.93 67.7429 161.555 68.7976C161.188 69.8445 160.661 70.7585 159.973 71.5398C159.286 72.3132 158.465 72.9148 157.512 73.3445C156.567 73.7742 155.516 73.989 154.36 73.989ZM154.36 71.3289C155.329 71.3289 156.133 71.0789 156.774 70.5789C157.414 70.0789 157.895 69.3796 158.215 68.4812C158.543 67.5828 158.707 66.5359 158.707 65.3406V65.0593C158.707 63.8796 158.543 62.8445 158.215 61.9539C157.887 61.0554 157.399 60.3562 156.75 59.8562C156.11 59.3562 155.309 59.1062 154.348 59.1062C153.395 59.1062 152.602 59.3562 151.969 59.8562C151.336 60.3484 150.86 61.0398 150.539 61.9304C150.227 62.821 150.071 63.864 150.071 65.0593V65.3406C150.071 66.5359 150.227 67.5828 150.539 68.4812C150.86 69.3796 151.336 70.0789 151.969 70.5789C152.61 71.0789 153.407 71.3289 154.36 71.3289ZM163.969 73.7429V71.6921L165.785 71.3406V59.0945L163.969 58.7429V56.6804H177.551V61.3562H174.926L174.773 59.3171H169.207V64.0164H175.184V66.6531H169.207V71.3406L171.035 71.6921V73.7429H163.969ZM179.285 73.7429V71.6921L181.101 71.3406V59.0945L179.285 58.7429V56.6804H187.371C188.683 56.6804 189.808 56.8835 190.746 57.2898C191.683 57.696 192.402 58.2781 192.902 59.0359C193.41 59.7937 193.664 60.7039 193.664 61.7664C193.664 62.7664 193.414 63.6609 192.914 64.45C192.414 65.239 191.718 65.8601 190.828 66.3132C189.937 66.7664 188.91 66.9968 187.746 67.0046H184.523V71.3406L186.351 71.6921V73.7429H179.285ZM190.265 73.7429L187.394 66.3718L190.476 65.6101L192.96 71.3523L194.414 71.6921V73.7429H190.265ZM184.523 64.3679H187.312C188.296 64.3679 189.031 64.1609 189.515 63.7468C190.007 63.325 190.253 62.7156 190.253 61.9187C190.253 61.1296 190.011 60.5007 189.527 60.032C189.042 59.5554 188.324 59.3171 187.371 59.3171H184.523V64.3679ZM196.089 73.7429V71.6921L197.308 71.5164L202.733 56.6804H206.237L211.628 71.5164L212.847 71.6921V73.7429H207.034V71.6921L208.218 71.4812L207.468 69.1375H201.468L200.718 71.4812L201.901 71.6921V73.7429H196.089ZM202.276 66.6179H206.659L204.667 60.7703L204.503 60.2546H204.433L204.257 60.8054L202.276 66.6179ZM221.881 73.989C220.225 73.989 218.784 73.6453 217.557 72.9578C216.331 72.2625 215.381 71.282 214.709 70.0164C214.045 68.7429 213.713 67.239 213.713 65.5046V64.9304C213.713 63.2742 214.034 61.8093 214.674 60.5359C215.323 59.2546 216.245 58.2507 217.44 57.5242C218.635 56.7976 220.057 56.4343 221.706 56.4343C222.862 56.4343 223.944 56.5984 224.952 56.9265C225.967 57.2546 226.874 57.7546 227.67 58.4265V62.5515H225.127L224.776 59.9617C224.518 59.7742 224.237 59.614 223.932 59.4812C223.627 59.3484 223.295 59.2468 222.936 59.1765C222.584 59.1062 222.202 59.071 221.788 59.071C220.819 59.071 219.987 59.3093 219.292 59.7859C218.596 60.2625 218.061 60.9382 217.686 61.8132C217.319 62.6804 217.135 63.7117 217.135 64.907V65.5046C217.135 66.7 217.331 67.7351 217.721 68.6101C218.112 69.4851 218.667 70.1648 219.385 70.6492C220.104 71.1257 220.956 71.364 221.94 71.364C222.432 71.364 222.924 71.3093 223.417 71.2C223.917 71.0828 224.37 70.9343 224.776 70.7546L225.127 68.3523H227.67V72.4304C227.006 72.8679 226.178 73.239 225.186 73.5437C224.194 73.8406 223.092 73.989 221.881 73.989ZM233.307 73.7429V71.6921L235.135 71.3406V59.3171H232.029L231.842 61.3562H229.252V56.6804H244.475V61.3562H241.873L241.686 59.3171H238.557V71.3406L240.397 71.6921V73.7429H233.307ZM243.865 73.7429V71.6921L245.084 71.5164L250.509 56.6804H254.013L259.404 71.5164L260.623 71.6921V73.7429H254.81V71.6921L255.994 71.4812L255.244 69.1375H249.244L248.494 71.4812L249.677 71.6921V73.7429H243.865ZM250.052 66.6179H254.435L252.443 60.7703L252.279 60.2546H252.209L252.033 60.8054L250.052 66.6179ZM264.407 73.7429V71.6921L266.235 71.3406V59.3171H263.13L262.942 61.3562H260.353V56.6804H275.575V61.3562H272.974L272.786 59.3171H269.657V71.3406L271.497 71.6921V73.7429H264.407ZM277.251 73.7429V71.6921L279.067 71.3406V59.0945L277.251 58.7429V56.6804H279.067H282.489H284.551V58.7429L282.489 59.0945V71.1179H287.305L287.469 68.6218H290.083V73.7429H277.251Z" data-figma-gradient-fill="{&#34;type&#34;:&#34;GRADIENT_DIAMOND&#34;,&#34;stops&#34;:[{&#34;color&#34;:{&#34;r&#34;:0.21568627655506134,&#34;g&#34;:0.42745098471641541,&#34;b&#34;:0.66274511814117432,&#34;a&#34;:1.0},&#34;position&#34;:0.26023796200752258},{&#34;color&#34;:{&#34;r&#34;:0.0,&#34;g&#34;:0.30980393290519714,&#34;b&#34;:0.44313725829124451,&#34;a&#34;:1.0},&#34;position&#34;:1.0}],&#34;stopsVar&#34;:[{&#34;color&#34;:{&#34;r&#34;:0.21568627655506134,&#34;g&#34;:0.42745098471641541,&#34;b&#34;:0.66274511814117432,&#34;a&#34;:1.0},&#34;position&#34;:0.26023796200752258},{&#34;color&#34;:{&#34;r&#34;:0.0,&#34;g&#34;:0.30980393290519714,&#34;b&#34;:0.44313725829124451,&#34;a&#34;:1.0},&#34;position&#34;:1.0}],&#34;transform&#34;:{&#34;m00&#34;:153.91224670410156,&#34;m01&#34;:-0.0068183150142431259,&#34;m02&#34;:127.49523925781250,&#34;m10&#34;:-1.3994060736877145e-06,&#34;m11&#34;:24.744277954101562,&#34;m12&#34;:55.081554412841797},&#34;opacity&#34;:1.0,&#34;blendMode&#34;:&#34;NORMAL&#34;,&#34;visible&#34;:true}"/>
<defs>
<clipPath id="paint0_diamond_255_3_clip_path"><path d="M122.087 73.989C120.392 73.989 118.947 73.6375 117.751 72.9343C116.556 72.2312 115.638 71.2546 114.997 70.0046C114.365 68.7546 114.048 67.3054 114.048 65.657V65.071C114.048 63.3679 114.365 61.8679 114.997 60.571C115.63 59.2742 116.525 58.2625 117.681 57.5359C118.845 56.8015 120.22 56.4343 121.806 56.4343C123.033 56.4343 124.185 56.6023 125.263 56.9382C126.341 57.2742 127.279 57.7781 128.076 58.45V62.2351H125.544L125.064 59.95C124.759 59.6843 124.349 59.4734 123.833 59.3171C123.318 59.1531 122.728 59.071 122.064 59.071C121.111 59.071 120.287 59.325 119.591 59.8328C118.904 60.3328 118.376 61.032 118.009 61.9304C117.642 62.821 117.458 63.8601 117.458 65.0476V65.657C117.458 66.8132 117.638 67.821 117.997 68.6804C118.365 69.532 118.9 70.1921 119.603 70.6609C120.306 71.1296 121.169 71.364 122.193 71.364C122.794 71.364 123.345 71.3093 123.845 71.2C124.353 71.0828 124.771 70.9421 125.099 70.7781V67.8835L122.662 67.696V65.2937H128.533V72.196C127.775 72.7351 126.861 73.1687 125.79 73.4968C124.728 73.825 123.494 73.989 122.087 73.989ZM130.735 73.7429V71.6921L132.552 71.3406V59.0945L130.735 58.7429V56.6804H143.977V61.2859H141.352L141.2 59.3171H135.974V63.6062H141.751V66.2429H135.974V71.1179H141.481L141.634 69.0789H144.235V73.7429H130.735ZM154.36 73.989C153.211 73.989 152.164 73.7742 151.219 73.3445C150.274 72.9148 149.457 72.3132 148.77 71.5398C148.09 70.7585 147.567 69.8445 147.2 68.7976C146.832 67.7429 146.649 66.5906 146.649 65.3406V65.0828C146.649 63.8406 146.832 62.696 147.2 61.6492C147.567 60.5945 148.09 59.6765 148.77 58.8953C149.45 58.114 150.262 57.5085 151.207 57.0789C152.153 56.6492 153.2 56.4343 154.348 56.4343C155.504 56.4343 156.559 56.6492 157.512 57.0789C158.465 57.5085 159.286 58.114 159.973 58.8953C160.661 59.6765 161.188 60.5945 161.555 61.6492C161.93 62.696 162.118 63.8406 162.118 65.0828V65.3406C162.118 66.5906 161.93 67.7429 161.555 68.7976C161.188 69.8445 160.661 70.7585 159.973 71.5398C159.286 72.3132 158.465 72.9148 157.512 73.3445C156.567 73.7742 155.516 73.989 154.36 73.989ZM154.36 71.3289C155.329 71.3289 156.133 71.0789 156.774 70.5789C157.414 70.0789 157.895 69.3796 158.215 68.4812C158.543 67.5828 158.707 66.5359 158.707 65.3406V65.0593C158.707 63.8796 158.543 62.8445 158.215 61.9539C157.887 61.0554 157.399 60.3562 156.75 59.8562C156.11 59.3562 155.309 59.1062 154.348 59.1062C153.395 59.1062 152.602 59.3562 151.969 59.8562C151.336 60.3484 150.86 61.0398 150.539 61.9304C150.227 62.821 150.071 63.864 150.071 65.0593V65.3406C150.071 66.5359 150.227 67.5828 150.539 68.4812C150.86 69.3796 151.336 70.0789 151.969 70.5789C152.61 71.0789 153.407 71.3289 154.36 71.3289ZM163.969 73.7429V71.6921L165.785 71.3406V59.0945L163.969 58.7429V56.6804H177.551V61.3562H174.926L174.773 59.3171H169.207V64.0164H175.184V66.6531H169.207V71.3406L171.035 71.6921V73.7429H163.969ZM179.285 73.7429V71.6921L181.101 71.3406V59.0945L179.285 58.7429V56.6804H187.371C188.683 56.6804 189.808 56.8835 190.746 57.2898C191.683 57.696 192.402 58.2781 192.902 59.0359C193.41 59.7937 193.664 60.7039 193.664 61.7664C193.664 62.7664 193.414 63.6609 192.914 64.45C192.414 65.239 191.718 65.8601 190.828 66.3132C189.937 66.7664 188.91 66.9968 187.746 67.0046H184.523V71.3406L186.351 71.6921V73.7429H179.285ZM190.265 73.7429L187.394 66.3718L190.476 65.6101L192.96 71.3523L194.414 71.6921V73.7429H190.265ZM184.523 64.3679H187.312C188.296 64.3679 189.031 64.1609 189.515 63.7468C190.007 63.325 190.253 62.7156 190.253 61.9187C190.253 61.1296 190.011 60.5007 189.527 60.032C189.042 59.5554 188.324 59.3171 187.371 59.3171H184.523V64.3679ZM196.089 73.7429V71.6921L197.308 71.5164L202.733 56.6804H206.237L211.628 71.5164L212.847 71.6921V73.7429H207.034V71.6921L208.218 71.4812L207.468 69.1375H201.468L200.718 71.4812L201.901 71.6921V73.7429H196.089ZM202.276 66.6179H206.659L204.667 60.7703L204.503 60.2546H204.433L204.257 60.8054L202.276 66.6179ZM221.881 73.989C220.225 73.989 218.784 73.6453 217.557 72.9578C216.331 72.2625 215.381 71.282 214.709 70.0164C214.045 68.7429 213.713 67.239 213.713 65.5046V64.9304C213.713 63.2742 214.034 61.8093 214.674 60.5359C215.323 59.2546 216.245 58.2507 217.44 57.5242C218.635 56.7976 220.057 56.4343 221.706 56.4343C222.862 56.4343 223.944 56.5984 224.952 56.9265C225.967 57.2546 226.874 57.7546 227.67 58.4265V62.5515H225.127L224.776 59.9617C224.518 59.7742 224.237 59.614 223.932 59.4812C223.627 59.3484 223.295 59.2468 222.936 59.1765C222.584 59.1062 222.202 59.071 221.788 59.071C220.819 59.071 219.987 59.3093 219.292 59.7859C218.596 60.2625 218.061 60.9382 217.686 61.8132C217.319 62.6804 217.135 63.7117 217.135 64.907V65.5046C217.135 66.7 217.331 67.7351 217.721 68.6101C218.112 69.4851 218.667 70.1648 219.385 70.6492C220.104 71.1257 220.956 71.364 221.94 71.364C222.432 71.364 222.924 71.3093 223.417 71.2C223.917 71.0828 224.37 70.9343 224.776 70.7546L225.127 68.3523H227.67V72.4304C227.006 72.8679 226.178 73.239 225.186 73.5437C224.194 73.8406 223.092 73.989 221.881 73.989ZM233.307 73.7429V71.6921L235.135 71.3406V59.3171H232.029L231.842 61.3562H229.252V56.6804H244.475V61.3562H241.873L241.686 59.3171H238.557V71.3406L240.397 71.6921V73.7429H233.307ZM243.865 73.7429V71.6921L245.084 71.5164L250.509 56.6804H254.013L259.404 71.5164L260.623 71.6921V73.7429H254.81V71.6921L255.994 71.4812L255.244 69.1375H249.244L248.494 71.4812L249.677 71.6921V73.7429H243.865ZM250.052 66.6179H254.435L252.443 60.7703L252.279 60.2546H252.209L252.033 60.8054L250.052 66.6179ZM264.407 73.7429V71.6921L266.235 71.3406V59.3171H263.13L262.942 61.3562H260.353V56.6804H275.575V61.3562H272.974L272.786 59.3171H269.657V71.3406L271.497 71.6921V73.7429H264.407ZM277.251 73.7429V71.6921L279.067 71.3406V59.0945L277.251 58.7429V56.6804H279.067H282.489H284.551V58.7429L282.489 59.0945V71.1179H287.305L287.469 68.6218H290.083V73.7429H277.251Z"/></clipPath><linearGradient id="paint0_diamond_255_3" x1="0" y1="0" x2="500" y2="500" gradientUnits="userSpaceOnUse">
<stop offset="0.260238" stop-color="#376DA9"/>
<stop offset="1" stop-color="#004F71"/>
</linearGradient>
</defs>
</svg>
