<svg width="603" height="461" viewBox="0 0 603 461" fill="none" xmlns="http://www.w3.org/2000/svg">
<path d="M234.173 83.1353L253.108 72.5639C254.222 79.4261 260.348 94.7083 275.942 100.94L235.843 122.639L212.453 109.842C210.039 112.81 204.878 120.747 203.542 126.534L224.148 138.774V204.985L202.985 217.226C204.099 220.935 207.552 229.577 212.453 234.474L234.73 222.233L283.739 250.053C285.967 251.351 289.754 255.617 287.081 262.293L270.373 289L263.69 278.985L233.059 261.737L205.769 276.203C179.928 257.508 167.156 221.306 164 205.541L191.846 188.85V153.241L164 137.662C168.901 106.949 193.888 77.7569 205.769 67L234.173 83.1353Z" fill="#004F71"/>
<path d="M369.79 83.1353L350.844 72.5639C349.729 79.4261 343.6 94.7083 327.998 100.94L368.118 122.639L391.521 109.842C393.936 112.81 399.1 120.747 400.437 126.534L379.82 138.774V204.985L400.994 217.226C399.88 220.935 396.425 229.577 391.521 234.474L369.232 222.233L320.197 250.053C317.968 251.351 315.488 255.617 318.162 262.293L335.436 289L340.257 278.985L370.904 261.737L398.208 276.203C424.063 257.508 436.842 221.306 440 205.541L412.139 188.85V153.241L440 137.662C435.096 106.949 410.096 77.7569 398.208 67L369.79 83.1353Z" fill="#004F71"/>
<path d="M306 139.883V110L359 140.437V167H332.5V154.272L323.115 149.291L306 139.883Z" fill="#784212"/>
<path d="M244 205.424V140.692L298 110V140.134L271.835 154.643V188.683L298 203.75V235L244 205.424Z" fill="#784212"/>
<path d="M359 205.28V175H307.656L332.5 183.411V188.458L306 203.598V235L359 205.28Z" fill="#6D6D6D"/>
<path d="M280.144 37.9724C285.839 29.4962 297.59 9.67923 302.655 0C307.345 9.30695 318.3 29.9311 324.603 37.9724C369.062 109.45 239.06 110.567 280.144 37.9724Z" fill="#004F71"/>
<path d="M280.144 293.972C285.839 285.496 297.59 265.679 302.655 256C307.345 265.307 318.3 285.931 324.603 293.972C369.062 365.45 239.06 366.567 280.144 293.972Z" fill="#004F71"/>
<path d="M320.603 314.944C330.505 307.189 326.654 300.542 323.904 296.665L315.652 283.371L307.951 268.97L303 259L304.65 287.249C305.2 295.003 304.1 321.59 320.603 314.944Z" fill="#376DA9"/>
<path d="M320.603 57.9436C330.505 50.1891 326.654 43.5423 323.904 39.665L315.652 26.3715L307.951 11.9702L303 2L304.65 30.2488C305.2 38.0033 304.1 64.5904 320.603 57.9436Z" fill="#376DA9"/>
<g clip-path="url(#paint0_diamond_255_2_clip_path)" data-figma-skip-parse="true"><g transform="matrix(0.199358 -1.83239e-09 -8.83158e-06 0.0324003 307.642 406)"><rect x="0" y="0" width="1548.24" height="1543.2" fill="url(#paint0_diamond_255_2)" opacity="1" shape-rendering="crispEdges"/><rect x="0" y="0" width="1548.24" height="1543.2" transform="scale(1 -1)" fill="url(#paint0_diamond_255_2)" opacity="1" shape-rendering="crispEdges"/><rect x="0" y="0" width="1548.24" height="1543.2" transform="scale(-1 1)" fill="url(#paint0_diamond_255_2)" opacity="1" shape-rendering="crispEdges"/><rect x="0" y="0" width="1548.24" height="1543.2" transform="scale(-1)" fill="url(#paint0_diamond_255_2)" opacity="1" shape-rendering="crispEdges"/></g></g><path d="M88.1938 424.656C83.6729 424.656 79.8188 423.719 76.6313 421.844C73.4438 419.969 70.9958 417.365 69.2875 414.031C67.6 410.698 66.7563 406.833 66.7563 402.438V400.875C66.7563 396.333 67.6 392.333 69.2875 388.875C70.975 385.417 73.3604 382.719 76.4438 380.781C79.5479 378.823 83.2146 377.844 87.4438 377.844C90.7146 377.844 93.7875 378.292 96.6625 379.188C99.5375 380.083 102.038 381.427 104.163 383.219V393.312H97.4125L96.1313 387.219C95.3188 386.51 94.225 385.948 92.85 385.531C91.475 385.094 89.9021 384.875 88.1313 384.875C85.5896 384.875 83.3917 385.552 81.5375 386.906C79.7042 388.24 78.2979 390.104 77.3188 392.5C76.3396 394.875 75.85 397.646 75.85 400.812V402.438C75.85 405.521 76.3292 408.208 77.2875 410.5C78.2667 412.771 79.6938 414.531 81.5688 415.781C83.4438 417.031 85.7458 417.656 88.475 417.656C90.0792 417.656 91.5479 417.51 92.8813 417.219C94.2354 416.906 95.35 416.531 96.225 416.094V408.375L89.725 407.875V401.469H105.381V419.875C103.36 421.312 100.923 422.469 98.0688 423.344C95.2354 424.219 91.9438 424.656 88.1938 424.656ZM111.255 424V418.531L116.099 417.594V384.938L111.255 384V378.5H146.568V390.781H139.568L139.161 385.531H125.224V396.969H140.63V404H125.224V417H139.911L140.318 411.562H147.255V424H111.255ZM174.254 424.656C171.191 424.656 168.4 424.083 165.879 422.938C163.358 421.792 161.181 420.188 159.348 418.125C157.535 416.042 156.139 413.604 155.16 410.812C154.181 408 153.691 404.927 153.691 401.594V400.906C153.691 397.594 154.181 394.542 155.16 391.75C156.139 388.938 157.535 386.49 159.348 384.406C161.16 382.323 163.327 380.708 165.848 379.562C168.368 378.417 171.16 377.844 174.223 377.844C177.306 377.844 180.118 378.417 182.66 379.562C185.202 380.708 187.389 382.323 189.223 384.406C191.056 386.49 192.462 388.938 193.441 391.75C194.441 394.542 194.941 397.594 194.941 400.906V401.594C194.941 404.927 194.441 408 193.441 410.812C192.462 413.604 191.056 416.042 189.223 418.125C187.389 420.188 185.202 421.792 182.66 422.938C180.139 424.083 177.337 424.656 174.254 424.656ZM174.254 417.562C176.837 417.562 178.983 416.896 180.691 415.562C182.4 414.229 183.681 412.365 184.535 409.969C185.41 407.573 185.848 404.781 185.848 401.594V400.844C185.848 397.698 185.41 394.938 184.535 392.562C183.66 390.167 182.358 388.302 180.629 386.969C178.92 385.635 176.785 384.969 174.223 384.969C171.681 384.969 169.566 385.635 167.879 386.969C166.191 388.281 164.92 390.125 164.066 392.5C163.233 394.875 162.816 397.656 162.816 400.844V401.594C162.816 404.781 163.233 407.573 164.066 409.969C164.92 412.365 166.191 414.229 167.879 415.562C169.587 416.896 171.712 417.562 174.254 417.562ZM199.878 424V418.531L204.721 417.594V384.938L199.878 384V378.5H236.096V390.969H229.096L228.69 385.531H213.846V398.062H229.784V405.094H213.846V417.594L218.721 418.531V424H199.878ZM240.72 424V418.531L245.564 417.594V384.938L240.72 384V378.5H262.283C265.783 378.5 268.783 379.042 271.283 380.125C273.783 381.208 275.699 382.76 277.033 384.781C278.387 386.802 279.064 389.229 279.064 392.062C279.064 394.729 278.397 397.115 277.064 399.219C275.73 401.323 273.876 402.979 271.501 404.188C269.126 405.396 266.387 406.01 263.283 406.031H254.689V417.594L259.564 418.531V424H240.72ZM270.001 424L262.345 404.344L270.564 402.312L277.189 417.625L281.064 418.531V424H270.001ZM254.689 399H262.126C264.751 399 266.71 398.448 268.001 397.344C269.314 396.219 269.97 394.594 269.97 392.469C269.97 390.365 269.324 388.688 268.033 387.438C266.741 386.167 264.824 385.531 262.283 385.531H254.689V399ZM285.531 424V418.531L288.781 418.062L303.25 378.5H312.594L326.969 418.062L330.219 418.531V424H314.719V418.531L317.875 417.969L315.875 411.719H299.875L297.875 417.969L301.031 418.531V424H285.531ZM302.031 405H313.719L308.406 389.406L307.969 388.031H307.781L307.312 389.5L302.031 405ZM354.311 424.656C349.895 424.656 346.051 423.74 342.78 421.906C339.509 420.052 336.978 417.438 335.186 414.062C333.415 410.667 332.53 406.656 332.53 402.031V400.5C332.53 396.083 333.384 392.177 335.092 388.781C336.822 385.365 339.28 382.688 342.467 380.75C345.655 378.812 349.447 377.844 353.842 377.844C356.926 377.844 359.811 378.281 362.499 379.156C365.207 380.031 367.624 381.365 369.749 383.156V394.156H362.967L362.03 387.25C361.342 386.75 360.592 386.323 359.78 385.969C358.967 385.615 358.082 385.344 357.124 385.156C356.186 384.969 355.165 384.875 354.061 384.875C351.478 384.875 349.259 385.51 347.405 386.781C345.551 388.052 344.124 389.854 343.124 392.188C342.145 394.5 341.655 397.25 341.655 400.438V402.031C341.655 405.219 342.176 407.979 343.217 410.312C344.259 412.646 345.738 414.458 347.655 415.75C349.572 417.021 351.842 417.656 354.467 417.656C355.78 417.656 357.092 417.51 358.405 417.219C359.738 416.906 360.947 416.51 362.03 416.031L362.967 409.625H369.749V420.5C367.978 421.667 365.77 422.656 363.124 423.469C360.478 424.26 357.54 424.656 354.311 424.656ZM384.779 424V418.531L389.654 417.594V385.531H381.372L380.872 390.969H373.966V378.5H414.56V390.969H407.622L407.122 385.531H398.779V417.594L403.685 418.531V424H384.779ZM412.934 424V418.531L416.184 418.062L430.652 378.5H439.996L454.371 418.062L457.621 418.531V424H442.121V418.531L445.277 417.969L443.277 411.719H427.277L425.277 417.969L428.434 418.531V424H412.934ZM429.434 405H441.121L435.809 389.406L435.371 388.031H435.184L434.715 389.5L429.434 405ZM467.714 424V418.531L472.589 417.594V385.531H464.307L463.807 390.969H456.901V378.5H497.495V390.969H490.557L490.057 385.531H481.714V417.594L486.62 418.531V424H467.714ZM501.962 424V418.531L506.806 417.594V384.938L501.962 384V378.5H506.806H515.931H521.431V384L515.931 384.938V417H528.775L529.212 410.344H536.181V424H501.962Z" data-figma-gradient-fill="{&#34;type&#34;:&#34;GRADIENT_DIAMOND&#34;,&#34;stops&#34;:[{&#34;color&#34;:{&#34;r&#34;:0.21568627655506134,&#34;g&#34;:0.42745098471641541,&#34;b&#34;:0.66274511814117432,&#34;a&#34;:1.0},&#34;position&#34;:0.26023796200752258},{&#34;color&#34;:{&#34;r&#34;:0.0,&#34;g&#34;:0.30980393290519714,&#34;b&#34;:0.44313725829124451,&#34;a&#34;:1.0},&#34;position&#34;:1.0}],&#34;stopsVar&#34;:[{&#34;color&#34;:{&#34;r&#34;:0.21568627655506134,&#34;g&#34;:0.42745098471641541,&#34;b&#34;:0.66274511814117432,&#34;a&#34;:1.0},&#34;position&#34;:0.26023796200752258},{&#34;color&#34;:{&#34;r&#34;:0.0,&#34;g&#34;:0.30980393290519714,&#34;b&#34;:0.44313725829124451,&#34;a&#34;:1.0},&#34;position&#34;:1.0}],&#34;transform&#34;:{&#34;m00&#34;:398.71664428710938,&#34;m01&#34;:-0.017663152888417244,&#34;m02&#34;:108.29219055175781,&#34;m10&#34;:-3.6647816159529611e-06,&#34;m11&#34;:64.800613403320312,&#34;m12&#34;:373.59970092773438},&#34;opacity&#34;:1.0,&#34;blendMode&#34;:&#34;NORMAL&#34;,&#34;visible&#34;:true}"/>
<path d="M87.8818 450.79H90.2988C90.2344 451.646 89.9971 452.404 89.5869 453.066C89.1768 453.723 88.6055 454.238 87.873 454.613C87.1406 454.988 86.2529 455.176 85.21 455.176C84.4072 455.176 83.6836 455.035 83.0391 454.754C82.4004 454.467 81.8525 454.06 81.3955 453.532C80.9443 452.999 80.5986 452.36 80.3584 451.616C80.1182 450.866 79.998 450.025 79.998 449.094V448.118C79.998 447.187 80.1211 446.346 80.3672 445.596C80.6133 444.846 80.9648 444.207 81.4219 443.68C81.8848 443.146 82.4385 442.736 83.083 442.449C83.7334 442.162 84.46 442.019 85.2627 442.019C86.3057 442.019 87.1875 442.212 87.9082 442.599C88.6289 442.979 89.1885 443.504 89.5869 444.172C89.9854 444.84 90.2256 445.607 90.3076 446.475H87.8906C87.8438 445.936 87.7266 445.479 87.5391 445.104C87.3574 444.729 87.082 444.444 86.7129 444.251C86.3496 444.052 85.8662 443.952 85.2627 443.952C84.7939 443.952 84.3809 444.04 84.0234 444.216C83.6719 444.392 83.3789 444.655 83.1445 445.007C82.9102 445.353 82.7344 445.786 82.6172 446.308C82.5 446.823 82.4414 447.421 82.4414 448.101V449.094C82.4414 449.744 82.4941 450.327 82.5996 450.843C82.7051 451.358 82.8691 451.795 83.0918 452.152C83.3145 452.51 83.6016 452.782 83.9531 452.97C84.3047 453.157 84.7236 453.251 85.21 453.251C85.8018 453.251 86.2822 453.157 86.6514 452.97C87.0264 452.782 87.3105 452.507 87.5039 452.144C87.7031 451.78 87.8291 451.329 87.8818 450.79ZM102.533 448.276V448.936C102.533 449.902 102.404 450.772 102.146 451.546C101.889 452.313 101.522 452.967 101.048 453.506C100.573 454.045 100.008 454.458 99.3516 454.745C98.6953 455.032 97.9658 455.176 97.1631 455.176C96.3721 455.176 95.6455 455.032 94.9834 454.745C94.3271 454.458 93.7588 454.045 93.2783 453.506C92.7979 452.967 92.4258 452.313 92.1621 451.546C91.8984 450.772 91.7666 449.902 91.7666 448.936V448.276C91.7666 447.304 91.8984 446.434 92.1621 445.666C92.4258 444.898 92.7949 444.245 93.2695 443.706C93.7441 443.161 94.3096 442.745 94.9658 442.458C95.6279 442.171 96.3545 442.027 97.1455 442.027C97.9482 442.027 98.6777 442.171 99.334 442.458C99.9902 442.745 100.556 443.161 101.03 443.706C101.511 444.245 101.88 444.898 102.138 445.666C102.401 446.434 102.533 447.304 102.533 448.276ZM100.09 448.936V448.259C100.09 447.562 100.025 446.949 99.8965 446.422C99.7676 445.889 99.5771 445.44 99.3252 445.077C99.0732 444.714 98.7627 444.441 98.3936 444.26C98.0244 444.072 97.6084 443.979 97.1455 443.979C96.6768 443.979 96.2607 444.072 95.8975 444.26C95.54 444.441 95.2354 444.714 94.9834 445.077C94.7314 445.44 94.5381 445.889 94.4033 446.422C94.2744 446.949 94.21 447.562 94.21 448.259V448.936C94.21 449.627 94.2744 450.239 94.4033 450.772C94.5381 451.306 94.7314 451.757 94.9834 452.126C95.2412 452.489 95.5518 452.765 95.915 452.952C96.2783 453.14 96.6943 453.233 97.1631 453.233C97.6318 453.233 98.0479 453.14 98.4111 452.952C98.7744 452.765 99.0791 452.489 99.3252 452.126C99.5771 451.757 99.7676 451.306 99.8965 450.772C100.025 450.239 100.09 449.627 100.09 448.936ZM114.864 442.203V455H112.438L106.998 446.123V455H104.581V442.203H106.998L112.456 451.089V442.203H114.864ZM124.022 451.678C124.022 451.432 123.984 451.212 123.908 451.019C123.838 450.819 123.706 450.641 123.513 450.482C123.325 450.318 123.059 450.16 122.713 450.008C122.373 449.85 121.934 449.686 121.395 449.516C120.797 449.328 120.24 449.117 119.725 448.883C119.209 448.648 118.755 448.376 118.362 448.065C117.976 447.755 117.674 447.397 117.457 446.993C117.24 446.583 117.132 446.108 117.132 445.569C117.132 445.042 117.243 444.562 117.466 444.128C117.694 443.694 118.017 443.322 118.433 443.012C118.849 442.695 119.338 442.452 119.9 442.282C120.469 442.112 121.096 442.027 121.781 442.027C122.73 442.027 123.551 442.2 124.242 442.546C124.939 442.892 125.479 443.36 125.859 443.952C126.24 444.544 126.431 445.209 126.431 445.947H124.022C124.022 445.549 123.938 445.197 123.768 444.893C123.604 444.588 123.352 444.348 123.012 444.172C122.678 443.996 122.256 443.908 121.746 443.908C121.254 443.908 120.844 443.981 120.516 444.128C120.193 444.274 119.95 444.474 119.786 444.726C119.628 444.978 119.549 445.259 119.549 445.569C119.549 445.804 119.604 446.015 119.716 446.202C119.827 446.384 119.994 446.557 120.217 446.721C120.439 446.879 120.715 447.028 121.043 447.169C121.377 447.304 121.764 447.438 122.203 447.573C122.906 447.784 123.521 448.019 124.049 448.276C124.582 448.534 125.024 448.827 125.376 449.155C125.733 449.483 126 449.853 126.176 450.263C126.357 450.673 126.448 451.139 126.448 451.66C126.448 452.211 126.34 452.703 126.123 453.137C125.906 453.57 125.596 453.939 125.191 454.244C124.787 454.549 124.301 454.78 123.732 454.938C123.17 455.097 122.54 455.176 121.843 455.176C121.222 455.176 120.606 455.094 119.997 454.93C119.394 454.76 118.846 454.508 118.354 454.174C117.861 453.834 117.469 453.406 117.176 452.891C116.883 452.369 116.736 451.76 116.736 451.062H119.162C119.162 451.467 119.227 451.812 119.355 452.1C119.49 452.381 119.678 452.612 119.918 452.794C120.164 452.97 120.451 453.099 120.779 453.181C121.107 453.263 121.462 453.304 121.843 453.304C122.335 453.304 122.739 453.236 123.056 453.102C123.378 452.961 123.618 452.768 123.776 452.521C123.94 452.275 124.022 451.994 124.022 451.678ZM135.431 442.203H137.848V450.702C137.848 451.681 137.637 452.504 137.215 453.172C136.793 453.834 136.219 454.335 135.492 454.675C134.766 455.009 133.939 455.176 133.014 455.176C132.076 455.176 131.241 455.009 130.509 454.675C129.776 454.335 129.202 453.834 128.786 453.172C128.37 452.504 128.162 451.681 128.162 450.702V442.203H130.579V450.702C130.579 451.3 130.679 451.789 130.878 452.17C131.077 452.545 131.358 452.823 131.722 453.005C132.085 453.187 132.516 453.277 133.014 453.277C133.518 453.277 133.948 453.187 134.306 453.005C134.669 452.823 134.947 452.545 135.141 452.17C135.334 451.789 135.431 451.3 135.431 450.702V442.203ZM148.263 453.102V455H141.829V453.102H148.263ZM142.559 442.203V455H140.142V442.203H142.559ZM153.264 442.203V455H150.855V442.203H153.264ZM157.236 442.203V444.11H146.927V442.203H157.236ZM168.961 448.276V448.936C168.961 449.902 168.832 450.772 168.574 451.546C168.316 452.313 167.95 452.967 167.476 453.506C167.001 454.045 166.436 454.458 165.779 454.745C165.123 455.032 164.394 455.176 163.591 455.176C162.8 455.176 162.073 455.032 161.411 454.745C160.755 454.458 160.187 454.045 159.706 453.506C159.226 452.967 158.854 452.313 158.59 451.546C158.326 450.772 158.194 449.902 158.194 448.936V448.276C158.194 447.304 158.326 446.434 158.59 445.666C158.854 444.898 159.223 444.245 159.697 443.706C160.172 443.161 160.737 442.745 161.394 442.458C162.056 442.171 162.782 442.027 163.573 442.027C164.376 442.027 165.105 442.171 165.762 442.458C166.418 442.745 166.983 443.161 167.458 443.706C167.938 444.245 168.308 444.898 168.565 445.666C168.829 446.434 168.961 447.304 168.961 448.276ZM166.518 448.936V448.259C166.518 447.562 166.453 446.949 166.324 446.422C166.195 445.889 166.005 445.44 165.753 445.077C165.501 444.714 165.19 444.441 164.821 444.26C164.452 444.072 164.036 443.979 163.573 443.979C163.104 443.979 162.688 444.072 162.325 444.26C161.968 444.441 161.663 444.714 161.411 445.077C161.159 445.44 160.966 445.889 160.831 446.422C160.702 446.949 160.638 447.562 160.638 448.259V448.936C160.638 449.627 160.702 450.239 160.831 450.772C160.966 451.306 161.159 451.757 161.411 452.126C161.669 452.489 161.979 452.765 162.343 452.952C162.706 453.14 163.122 453.233 163.591 453.233C164.06 453.233 164.476 453.14 164.839 452.952C165.202 452.765 165.507 452.489 165.753 452.126C166.005 451.757 166.195 451.306 166.324 450.772C166.453 450.239 166.518 449.627 166.518 448.936ZM171.009 442.203H175.658C176.631 442.203 177.466 442.35 178.163 442.643C178.86 442.936 179.396 443.369 179.771 443.943C180.146 444.518 180.334 445.224 180.334 446.062C180.334 446.724 180.217 447.298 179.982 447.784C179.748 448.271 179.417 448.678 178.989 449.006C178.567 449.334 178.069 449.592 177.495 449.779L176.739 450.166H172.635L172.617 448.259H175.685C176.183 448.259 176.596 448.171 176.924 447.995C177.252 447.819 177.498 447.576 177.662 447.266C177.832 446.955 177.917 446.601 177.917 446.202C177.917 445.774 177.835 445.405 177.671 445.095C177.507 444.778 177.258 444.535 176.924 444.365C176.59 444.195 176.168 444.11 175.658 444.11H173.426V455H171.009V442.203ZM178.233 455L175.271 449.27L177.829 449.261L180.826 454.877V455H178.233ZM185.027 442.203V455H182.61V442.203H185.027ZM182.681 441.395L184.403 438.723H186.97L184.57 441.395H182.681ZM192.885 444.146L189.237 455H186.68L191.461 442.203H193.096L192.885 444.146ZM195.935 455L192.27 444.146L192.05 442.203H193.693L198.501 455H195.935ZM195.768 450.245V452.152H188.903V450.245H195.768ZM212.783 453.102V455H205.98V453.102H212.783ZM206.719 442.203V455H204.302V442.203H206.719ZM211.896 447.485V449.34H205.98V447.485H211.896ZM212.757 442.203V444.11H205.98V442.203H212.757ZM221.52 442.203V455H219.103V442.203H221.52ZM234.413 442.203V455H231.987L226.547 446.123V455H224.13V442.203H226.547L232.005 451.089V442.203H234.413ZM246.858 448.382V453.365C246.671 453.605 246.375 453.866 245.971 454.147C245.572 454.429 245.051 454.672 244.406 454.877C243.762 455.076 242.971 455.176 242.033 455.176C241.219 455.176 240.475 455.041 239.801 454.771C239.127 454.496 238.547 454.095 238.061 453.567C237.574 453.04 237.199 452.396 236.936 451.634C236.672 450.872 236.54 450.002 236.54 449.023V448.18C236.54 447.201 236.663 446.331 236.909 445.569C237.161 444.808 237.519 444.163 237.981 443.636C238.45 443.108 239.01 442.707 239.66 442.432C240.316 442.156 241.049 442.019 241.857 442.019C242.941 442.019 243.832 442.197 244.529 442.555C245.232 442.912 245.771 443.404 246.146 444.031C246.521 444.652 246.756 445.367 246.85 446.176H244.494C244.43 445.73 244.301 445.341 244.107 445.007C243.914 444.667 243.639 444.403 243.281 444.216C242.93 444.022 242.473 443.926 241.91 443.926C241.436 443.926 241.017 444.02 240.653 444.207C240.29 444.395 239.985 444.667 239.739 445.024C239.493 445.382 239.306 445.824 239.177 446.352C239.054 446.879 238.992 447.482 238.992 448.162V449.023C238.992 449.709 239.062 450.318 239.203 450.852C239.344 451.379 239.546 451.824 239.81 452.188C240.079 452.545 240.41 452.817 240.803 453.005C241.201 453.187 241.652 453.277 242.156 453.277C242.613 453.277 242.991 453.239 243.29 453.163C243.595 453.081 243.838 452.984 244.02 452.873C244.201 452.762 244.342 452.653 244.441 452.548V450.148H241.901V448.382H246.858ZM257.625 453.102V455H250.822V453.102H257.625ZM251.561 442.203V455H249.144V442.203H251.561ZM256.737 447.485V449.34H250.822V447.485H256.737ZM257.599 442.203V444.11H250.822V442.203H257.599ZM269.587 442.203V455H267.161L261.721 446.123V455H259.304V442.203H261.721L267.179 451.089V442.203H269.587ZM274.623 442.203V455H272.206V442.203H274.623ZM285.715 453.102V455H278.912V453.102H285.715ZM279.65 442.203V455H277.233V442.203H279.65ZM284.827 447.485V449.34H278.912V447.485H284.827ZM285.688 442.203V444.11H278.912V442.203H285.688ZM287.394 442.203H292.043C293.016 442.203 293.851 442.35 294.548 442.643C295.245 442.936 295.781 443.369 296.156 443.943C296.531 444.518 296.719 445.224 296.719 446.062C296.719 446.724 296.602 447.298 296.367 447.784C296.133 448.271 295.802 448.678 295.374 449.006C294.952 449.334 294.454 449.592 293.88 449.779L293.124 450.166H289.02L289.002 448.259H292.069C292.567 448.259 292.98 448.171 293.309 447.995C293.637 447.819 293.883 447.576 294.047 447.266C294.217 446.955 294.302 446.601 294.302 446.202C294.302 445.774 294.22 445.405 294.056 445.095C293.892 444.778 293.643 444.535 293.309 444.365C292.975 444.195 292.553 444.11 292.043 444.11H289.811V455H287.394V442.203ZM294.618 455L291.656 449.27L294.214 449.261L297.211 454.877V455H294.618ZM301.412 442.203V455H298.995V442.203H301.412ZM299.065 441.395L300.788 438.723H303.354L300.955 441.395H299.065ZM309.27 444.146L305.622 455H303.064L307.846 442.203H309.48L309.27 444.146ZM312.319 455L308.654 444.146L308.435 442.203H310.078L314.886 455H312.319ZM312.152 450.245V452.152H305.288V450.245H312.152ZM329.168 453.102V455H322.365V453.102H329.168ZM323.104 442.203V455H320.687V442.203H323.104ZM328.28 447.485V449.34H322.365V447.485H328.28ZM329.142 442.203V444.11H322.365V442.203H329.142ZM341.13 442.203V455H338.704L333.264 446.123V455H330.847V442.203H333.264L338.722 451.089V442.203H341.13ZM348.073 442.203H352.723C353.695 442.203 354.53 442.35 355.228 442.643C355.925 442.936 356.461 443.369 356.836 443.943C357.211 444.518 357.398 445.224 357.398 446.062C357.398 446.724 357.281 447.298 357.047 447.784C356.812 448.271 356.481 448.678 356.054 449.006C355.632 449.334 355.134 449.592 354.56 449.779L353.804 450.166H349.699L349.682 448.259H352.749C353.247 448.259 353.66 448.171 353.988 447.995C354.316 447.819 354.562 447.576 354.727 447.266C354.896 446.955 354.981 446.601 354.981 446.202C354.981 445.774 354.899 445.405 354.735 445.095C354.571 444.778 354.322 444.535 353.988 444.365C353.654 444.195 353.232 444.11 352.723 444.11H350.49V455H348.073V442.203ZM355.298 455L352.336 449.27L354.894 449.261L357.891 454.877V455H355.298ZM367.998 453.102V455H361.195V453.102H367.998ZM361.934 442.203V455H359.517V442.203H361.934ZM367.11 447.485V449.34H361.195V447.485H367.11ZM367.972 442.203V444.11H361.195V442.203H367.972ZM377.165 450.79H379.582C379.518 451.646 379.28 452.404 378.87 453.066C378.46 453.723 377.889 454.238 377.156 454.613C376.424 454.988 375.536 455.176 374.493 455.176C373.69 455.176 372.967 455.035 372.322 454.754C371.684 454.467 371.136 454.06 370.679 453.532C370.228 452.999 369.882 452.36 369.642 451.616C369.401 450.866 369.281 450.025 369.281 449.094V448.118C369.281 447.187 369.404 446.346 369.65 445.596C369.896 444.846 370.248 444.207 370.705 443.68C371.168 443.146 371.722 442.736 372.366 442.449C373.017 442.162 373.743 442.019 374.546 442.019C375.589 442.019 376.471 442.212 377.191 442.599C377.912 442.979 378.472 443.504 378.87 444.172C379.269 444.84 379.509 445.607 379.591 446.475H377.174C377.127 445.936 377.01 445.479 376.822 445.104C376.641 444.729 376.365 444.444 375.996 444.251C375.633 444.052 375.149 443.952 374.546 443.952C374.077 443.952 373.664 444.04 373.307 444.216C372.955 444.392 372.662 444.655 372.428 445.007C372.193 445.353 372.018 445.786 371.9 446.308C371.783 446.823 371.725 447.421 371.725 448.101V449.094C371.725 449.744 371.777 450.327 371.883 450.843C371.988 451.358 372.152 451.795 372.375 452.152C372.598 452.51 372.885 452.782 373.236 452.97C373.588 453.157 374.007 453.251 374.493 453.251C375.085 453.251 375.565 453.157 375.935 452.97C376.31 452.782 376.594 452.507 376.787 452.144C376.986 451.78 377.112 451.329 377.165 450.79ZM388.573 442.203H390.99V450.702C390.99 451.681 390.779 452.504 390.357 453.172C389.936 453.834 389.361 454.335 388.635 454.675C387.908 455.009 387.082 455.176 386.156 455.176C385.219 455.176 384.384 455.009 383.651 454.675C382.919 454.335 382.345 453.834 381.929 453.172C381.513 452.504 381.305 451.681 381.305 450.702V442.203H383.722V450.702C383.722 451.3 383.821 451.789 384.021 452.17C384.22 452.545 384.501 452.823 384.864 453.005C385.228 453.187 385.658 453.277 386.156 453.277C386.66 453.277 387.091 453.187 387.448 453.005C387.812 452.823 388.09 452.545 388.283 452.17C388.477 451.789 388.573 451.3 388.573 450.702V442.203ZM393.284 442.203H397.934C398.906 442.203 399.741 442.35 400.438 442.643C401.136 442.936 401.672 443.369 402.047 443.943C402.422 444.518 402.609 445.224 402.609 446.062C402.609 446.724 402.492 447.298 402.258 447.784C402.023 448.271 401.692 448.678 401.265 449.006C400.843 449.334 400.345 449.592 399.771 449.779L399.015 450.166H394.91L394.893 448.259H397.96C398.458 448.259 398.871 448.171 399.199 447.995C399.527 447.819 399.773 447.576 399.938 447.266C400.107 446.955 400.192 446.601 400.192 446.202C400.192 445.774 400.11 445.405 399.946 445.095C399.782 444.778 399.533 444.535 399.199 444.365C398.865 444.195 398.443 444.11 397.934 444.11H395.701V455H393.284V442.203ZM400.509 455L397.547 449.27L400.104 449.261L403.102 454.877V455H400.509ZM411.425 451.678C411.425 451.432 411.387 451.212 411.311 451.019C411.24 450.819 411.108 450.641 410.915 450.482C410.728 450.318 410.461 450.16 410.115 450.008C409.775 449.85 409.336 449.686 408.797 449.516C408.199 449.328 407.643 449.117 407.127 448.883C406.611 448.648 406.157 448.376 405.765 448.065C405.378 447.755 405.076 447.397 404.859 446.993C404.643 446.583 404.534 446.108 404.534 445.569C404.534 445.042 404.646 444.562 404.868 444.128C405.097 443.694 405.419 443.322 405.835 443.012C406.251 442.695 406.74 442.452 407.303 442.282C407.871 442.112 408.498 442.027 409.184 442.027C410.133 442.027 410.953 442.2 411.645 442.546C412.342 442.892 412.881 443.36 413.262 443.952C413.643 444.544 413.833 445.209 413.833 445.947H411.425C411.425 445.549 411.34 445.197 411.17 444.893C411.006 444.588 410.754 444.348 410.414 444.172C410.08 443.996 409.658 443.908 409.148 443.908C408.656 443.908 408.246 443.981 407.918 444.128C407.596 444.274 407.353 444.474 407.188 444.726C407.03 444.978 406.951 445.259 406.951 445.569C406.951 445.804 407.007 446.015 407.118 446.202C407.229 446.384 407.396 446.557 407.619 446.721C407.842 446.879 408.117 447.028 408.445 447.169C408.779 447.304 409.166 447.438 409.605 447.573C410.309 447.784 410.924 448.019 411.451 448.276C411.984 448.534 412.427 448.827 412.778 449.155C413.136 449.483 413.402 449.853 413.578 450.263C413.76 450.673 413.851 451.139 413.851 451.66C413.851 452.211 413.742 452.703 413.525 453.137C413.309 453.57 412.998 453.939 412.594 454.244C412.189 454.549 411.703 454.78 411.135 454.938C410.572 455.097 409.942 455.176 409.245 455.176C408.624 455.176 408.009 455.094 407.399 454.93C406.796 454.76 406.248 454.508 405.756 454.174C405.264 453.834 404.871 453.406 404.578 452.891C404.285 452.369 404.139 451.76 404.139 451.062H406.564C406.564 451.467 406.629 451.812 406.758 452.1C406.893 452.381 407.08 452.612 407.32 452.794C407.566 452.97 407.854 453.099 408.182 453.181C408.51 453.263 408.864 453.304 409.245 453.304C409.737 453.304 410.142 453.236 410.458 453.102C410.78 452.961 411.021 452.768 411.179 452.521C411.343 452.275 411.425 451.994 411.425 451.678ZM426.076 448.276V448.936C426.076 449.902 425.947 450.772 425.689 451.546C425.432 452.313 425.065 452.967 424.591 453.506C424.116 454.045 423.551 454.458 422.895 454.745C422.238 455.032 421.509 455.176 420.706 455.176C419.915 455.176 419.188 455.032 418.526 454.745C417.87 454.458 417.302 454.045 416.821 453.506C416.341 452.967 415.969 452.313 415.705 451.546C415.441 450.772 415.31 449.902 415.31 448.936V448.276C415.31 447.304 415.441 446.434 415.705 445.666C415.969 444.898 416.338 444.245 416.812 443.706C417.287 443.161 417.853 442.745 418.509 442.458C419.171 442.171 419.897 442.027 420.688 442.027C421.491 442.027 422.221 442.171 422.877 442.458C423.533 442.745 424.099 443.161 424.573 443.706C425.054 444.245 425.423 444.898 425.681 445.666C425.944 446.434 426.076 447.304 426.076 448.276ZM423.633 448.936V448.259C423.633 447.562 423.568 446.949 423.439 446.422C423.311 445.889 423.12 445.44 422.868 445.077C422.616 444.714 422.306 444.441 421.937 444.26C421.567 444.072 421.151 443.979 420.688 443.979C420.22 443.979 419.804 444.072 419.44 444.26C419.083 444.441 418.778 444.714 418.526 445.077C418.274 445.44 418.081 445.889 417.946 446.422C417.817 446.949 417.753 447.562 417.753 448.259V448.936C417.753 449.627 417.817 450.239 417.946 450.772C418.081 451.306 418.274 451.757 418.526 452.126C418.784 452.489 419.095 452.765 419.458 452.952C419.821 453.14 420.237 453.233 420.706 453.233C421.175 453.233 421.591 453.14 421.954 452.952C422.317 452.765 422.622 452.489 422.868 452.126C423.12 451.757 423.311 451.306 423.439 450.772C423.568 450.239 423.633 449.627 423.633 448.936ZM434.821 451.678C434.821 451.432 434.783 451.212 434.707 451.019C434.637 450.819 434.505 450.641 434.312 450.482C434.124 450.318 433.857 450.16 433.512 450.008C433.172 449.85 432.732 449.686 432.193 449.516C431.596 449.328 431.039 449.117 430.523 448.883C430.008 448.648 429.554 448.376 429.161 448.065C428.774 447.755 428.473 447.397 428.256 446.993C428.039 446.583 427.931 446.108 427.931 445.569C427.931 445.042 428.042 444.562 428.265 444.128C428.493 443.694 428.815 443.322 429.231 443.012C429.647 442.695 430.137 442.452 430.699 442.282C431.268 442.112 431.895 442.027 432.58 442.027C433.529 442.027 434.35 442.2 435.041 442.546C435.738 442.892 436.277 443.36 436.658 443.952C437.039 444.544 437.229 445.209 437.229 445.947H434.821C434.821 445.549 434.736 445.197 434.566 444.893C434.402 444.588 434.15 444.348 433.811 444.172C433.477 443.996 433.055 443.908 432.545 443.908C432.053 443.908 431.643 443.981 431.314 444.128C430.992 444.274 430.749 444.474 430.585 444.726C430.427 444.978 430.348 445.259 430.348 445.569C430.348 445.804 430.403 446.015 430.515 446.202C430.626 446.384 430.793 446.557 431.016 446.721C431.238 446.879 431.514 447.028 431.842 447.169C432.176 447.304 432.562 447.438 433.002 447.573C433.705 447.784 434.32 448.019 434.848 448.276C435.381 448.534 435.823 448.827 436.175 449.155C436.532 449.483 436.799 449.853 436.975 450.263C437.156 450.673 437.247 451.139 437.247 451.66C437.247 452.211 437.139 452.703 436.922 453.137C436.705 453.57 436.395 453.939 435.99 454.244C435.586 454.549 435.1 454.78 434.531 454.938C433.969 455.097 433.339 455.176 432.642 455.176C432.021 455.176 431.405 455.094 430.796 454.93C430.192 454.76 429.645 454.508 429.152 454.174C428.66 453.834 428.268 453.406 427.975 452.891C427.682 452.369 427.535 451.76 427.535 451.062H429.961C429.961 451.467 430.025 451.812 430.154 452.1C430.289 452.381 430.477 452.612 430.717 452.794C430.963 452.97 431.25 453.099 431.578 453.181C431.906 453.263 432.261 453.304 432.642 453.304C433.134 453.304 433.538 453.236 433.854 453.102C434.177 452.961 434.417 452.768 434.575 452.521C434.739 452.275 434.821 451.994 434.821 451.678ZM452.083 447.485V449.384H445.351V447.485H452.083ZM446.01 442.203V455H443.593V442.203H446.01ZM453.876 442.203V455H451.459V442.203H453.876ZM458.912 442.203V455H456.495V442.203H458.912ZM456.565 441.395L458.288 438.723H460.854L458.455 441.395H456.565ZM465.346 455H462.586L462.604 453.102H465.346C466.09 453.102 466.714 452.938 467.218 452.609C467.722 452.275 468.103 451.798 468.36 451.177C468.618 450.55 468.747 449.8 468.747 448.927V448.268C468.747 447.594 468.674 446.999 468.527 446.483C468.381 445.968 468.164 445.534 467.877 445.183C467.596 444.831 467.247 444.564 466.831 444.383C466.415 444.201 465.938 444.11 465.398 444.11H462.533V442.203H465.398C466.254 442.203 467.033 442.347 467.736 442.634C468.445 442.921 469.058 443.334 469.573 443.873C470.095 444.406 470.493 445.045 470.769 445.789C471.05 446.533 471.19 447.365 471.19 448.285V448.927C471.19 449.841 471.05 450.673 470.769 451.423C470.493 452.167 470.095 452.806 469.573 453.339C469.058 453.872 468.442 454.282 467.728 454.569C467.013 454.856 466.219 455 465.346 455ZM463.939 442.203V455H461.522V442.203H463.939ZM473.247 442.203H477.896C478.869 442.203 479.704 442.35 480.401 442.643C481.099 442.936 481.635 443.369 482.01 443.943C482.385 444.518 482.572 445.224 482.572 446.062C482.572 446.724 482.455 447.298 482.221 447.784C481.986 448.271 481.655 448.678 481.228 449.006C480.806 449.334 480.308 449.592 479.733 449.779L478.978 450.166H474.873L474.855 448.259H477.923C478.421 448.259 478.834 448.171 479.162 447.995C479.49 447.819 479.736 447.576 479.9 447.266C480.07 446.955 480.155 446.601 480.155 446.202C480.155 445.774 480.073 445.405 479.909 445.095C479.745 444.778 479.496 444.535 479.162 444.365C478.828 444.195 478.406 444.11 477.896 444.11H475.664V455H473.247V442.203ZM480.472 455L477.51 449.27L480.067 449.261L483.064 454.877V455H480.472ZM487.266 442.203V455H484.849V442.203H487.266ZM497.364 450.79H499.781C499.717 451.646 499.479 452.404 499.069 453.066C498.659 453.723 498.088 454.238 497.355 454.613C496.623 454.988 495.735 455.176 494.692 455.176C493.89 455.176 493.166 455.035 492.521 454.754C491.883 454.467 491.335 454.06 490.878 453.532C490.427 452.999 490.081 452.36 489.841 451.616C489.601 450.866 489.48 450.025 489.48 449.094V448.118C489.48 447.187 489.604 446.346 489.85 445.596C490.096 444.846 490.447 444.207 490.904 443.68C491.367 443.146 491.921 442.736 492.565 442.449C493.216 442.162 493.942 442.019 494.745 442.019C495.788 442.019 496.67 442.212 497.391 442.599C498.111 442.979 498.671 443.504 499.069 444.172C499.468 444.84 499.708 445.607 499.79 446.475H497.373C497.326 445.936 497.209 445.479 497.021 445.104C496.84 444.729 496.564 444.444 496.195 444.251C495.832 444.052 495.349 443.952 494.745 443.952C494.276 443.952 493.863 444.04 493.506 444.216C493.154 444.392 492.861 444.655 492.627 445.007C492.393 445.353 492.217 445.786 492.1 446.308C491.982 446.823 491.924 447.421 491.924 448.101V449.094C491.924 449.744 491.977 450.327 492.082 450.843C492.188 451.358 492.352 451.795 492.574 452.152C492.797 452.51 493.084 452.782 493.436 452.97C493.787 453.157 494.206 453.251 494.692 453.251C495.284 453.251 495.765 453.157 496.134 452.97C496.509 452.782 496.793 452.507 496.986 452.144C497.186 451.78 497.312 451.329 497.364 450.79ZM512.016 448.276V448.936C512.016 449.902 511.887 450.772 511.629 451.546C511.371 452.313 511.005 452.967 510.53 453.506C510.056 454.045 509.49 454.458 508.834 454.745C508.178 455.032 507.448 455.176 506.646 455.176C505.854 455.176 505.128 455.032 504.466 454.745C503.81 454.458 503.241 454.045 502.761 453.506C502.28 452.967 501.908 452.313 501.645 451.546C501.381 450.772 501.249 449.902 501.249 448.936V448.276C501.249 447.304 501.381 446.434 501.645 445.666C501.908 444.898 502.277 444.245 502.752 443.706C503.227 443.161 503.792 442.745 504.448 442.458C505.11 442.171 505.837 442.027 506.628 442.027C507.431 442.027 508.16 442.171 508.816 442.458C509.473 442.745 510.038 443.161 510.513 443.706C510.993 444.245 511.362 444.898 511.62 445.666C511.884 446.434 512.016 447.304 512.016 448.276ZM509.572 448.936V448.259C509.572 447.562 509.508 446.949 509.379 446.422C509.25 445.889 509.06 445.44 508.808 445.077C508.556 444.714 508.245 444.441 507.876 444.26C507.507 444.072 507.091 443.979 506.628 443.979C506.159 443.979 505.743 444.072 505.38 444.26C505.022 444.441 504.718 444.714 504.466 445.077C504.214 445.44 504.021 445.889 503.886 446.422C503.757 446.949 503.692 447.562 503.692 448.259V448.936C503.692 449.627 503.757 450.239 503.886 450.772C504.021 451.306 504.214 451.757 504.466 452.126C504.724 452.489 505.034 452.765 505.397 452.952C505.761 453.14 506.177 453.233 506.646 453.233C507.114 453.233 507.53 453.14 507.894 452.952C508.257 452.765 508.562 452.489 508.808 452.126C509.06 451.757 509.25 451.306 509.379 450.772C509.508 450.239 509.572 449.627 509.572 448.936ZM520.761 451.678C520.761 451.432 520.723 451.212 520.646 451.019C520.576 450.819 520.444 450.641 520.251 450.482C520.063 450.318 519.797 450.16 519.451 450.008C519.111 449.85 518.672 449.686 518.133 449.516C517.535 449.328 516.979 449.117 516.463 448.883C515.947 448.648 515.493 448.376 515.101 448.065C514.714 447.755 514.412 447.397 514.195 446.993C513.979 446.583 513.87 446.108 513.87 445.569C513.87 445.042 513.981 444.562 514.204 444.128C514.433 443.694 514.755 443.322 515.171 443.012C515.587 442.695 516.076 442.452 516.639 442.282C517.207 442.112 517.834 442.027 518.52 442.027C519.469 442.027 520.289 442.2 520.98 442.546C521.678 442.892 522.217 443.36 522.598 443.952C522.979 444.544 523.169 445.209 523.169 445.947H520.761C520.761 445.549 520.676 445.197 520.506 444.893C520.342 444.588 520.09 444.348 519.75 444.172C519.416 443.996 518.994 443.908 518.484 443.908C517.992 443.908 517.582 443.981 517.254 444.128C516.932 444.274 516.688 444.474 516.524 444.726C516.366 444.978 516.287 445.259 516.287 445.569C516.287 445.804 516.343 446.015 516.454 446.202C516.565 446.384 516.732 446.557 516.955 446.721C517.178 446.879 517.453 447.028 517.781 447.169C518.115 447.304 518.502 447.438 518.941 447.573C519.645 447.784 520.26 448.019 520.787 448.276C521.32 448.534 521.763 448.827 522.114 449.155C522.472 449.483 522.738 449.853 522.914 450.263C523.096 450.673 523.187 451.139 523.187 451.66C523.187 452.211 523.078 452.703 522.861 453.137C522.645 453.57 522.334 453.939 521.93 454.244C521.525 454.549 521.039 454.78 520.471 454.938C519.908 455.097 519.278 455.176 518.581 455.176C517.96 455.176 517.345 455.094 516.735 454.93C516.132 454.76 515.584 454.508 515.092 454.174C514.6 453.834 514.207 453.406 513.914 452.891C513.621 452.369 513.475 451.76 513.475 451.062H515.9C515.9 451.467 515.965 451.812 516.094 452.1C516.229 452.381 516.416 452.612 516.656 452.794C516.902 452.97 517.189 453.099 517.518 453.181C517.846 453.263 518.2 453.304 518.581 453.304C519.073 453.304 519.478 453.236 519.794 453.102C520.116 452.961 520.356 452.768 520.515 452.521C520.679 452.275 520.761 451.994 520.761 451.678Z" fill="#6D6D6D"/>
<defs>
<clipPath id="paint0_diamond_255_2_clip_path"><path d="M88.1938 424.656C83.6729 424.656 79.8188 423.719 76.6313 421.844C73.4438 419.969 70.9958 417.365 69.2875 414.031C67.6 410.698 66.7563 406.833 66.7563 402.438V400.875C66.7563 396.333 67.6 392.333 69.2875 388.875C70.975 385.417 73.3604 382.719 76.4438 380.781C79.5479 378.823 83.2146 377.844 87.4438 377.844C90.7146 377.844 93.7875 378.292 96.6625 379.188C99.5375 380.083 102.038 381.427 104.163 383.219V393.312H97.4125L96.1313 387.219C95.3188 386.51 94.225 385.948 92.85 385.531C91.475 385.094 89.9021 384.875 88.1313 384.875C85.5896 384.875 83.3917 385.552 81.5375 386.906C79.7042 388.24 78.2979 390.104 77.3188 392.5C76.3396 394.875 75.85 397.646 75.85 400.812V402.438C75.85 405.521 76.3292 408.208 77.2875 410.5C78.2667 412.771 79.6938 414.531 81.5688 415.781C83.4438 417.031 85.7458 417.656 88.475 417.656C90.0792 417.656 91.5479 417.51 92.8813 417.219C94.2354 416.906 95.35 416.531 96.225 416.094V408.375L89.725 407.875V401.469H105.381V419.875C103.36 421.312 100.923 422.469 98.0688 423.344C95.2354 424.219 91.9438 424.656 88.1938 424.656ZM111.255 424V418.531L116.099 417.594V384.938L111.255 384V378.5H146.568V390.781H139.568L139.161 385.531H125.224V396.969H140.63V404H125.224V417H139.911L140.318 411.562H147.255V424H111.255ZM174.254 424.656C171.191 424.656 168.4 424.083 165.879 422.938C163.358 421.792 161.181 420.188 159.348 418.125C157.535 416.042 156.139 413.604 155.16 410.812C154.181 408 153.691 404.927 153.691 401.594V400.906C153.691 397.594 154.181 394.542 155.16 391.75C156.139 388.938 157.535 386.49 159.348 384.406C161.16 382.323 163.327 380.708 165.848 379.562C168.368 378.417 171.16 377.844 174.223 377.844C177.306 377.844 180.118 378.417 182.66 379.562C185.202 380.708 187.389 382.323 189.223 384.406C191.056 386.49 192.462 388.938 193.441 391.75C194.441 394.542 194.941 397.594 194.941 400.906V401.594C194.941 404.927 194.441 408 193.441 410.812C192.462 413.604 191.056 416.042 189.223 418.125C187.389 420.188 185.202 421.792 182.66 422.938C180.139 424.083 177.337 424.656 174.254 424.656ZM174.254 417.562C176.837 417.562 178.983 416.896 180.691 415.562C182.4 414.229 183.681 412.365 184.535 409.969C185.41 407.573 185.848 404.781 185.848 401.594V400.844C185.848 397.698 185.41 394.938 184.535 392.562C183.66 390.167 182.358 388.302 180.629 386.969C178.92 385.635 176.785 384.969 174.223 384.969C171.681 384.969 169.566 385.635 167.879 386.969C166.191 388.281 164.92 390.125 164.066 392.5C163.233 394.875 162.816 397.656 162.816 400.844V401.594C162.816 404.781 163.233 407.573 164.066 409.969C164.92 412.365 166.191 414.229 167.879 415.562C169.587 416.896 171.712 417.562 174.254 417.562ZM199.878 424V418.531L204.721 417.594V384.938L199.878 384V378.5H236.096V390.969H229.096L228.69 385.531H213.846V398.062H229.784V405.094H213.846V417.594L218.721 418.531V424H199.878ZM240.72 424V418.531L245.564 417.594V384.938L240.72 384V378.5H262.283C265.783 378.5 268.783 379.042 271.283 380.125C273.783 381.208 275.699 382.76 277.033 384.781C278.387 386.802 279.064 389.229 279.064 392.062C279.064 394.729 278.397 397.115 277.064 399.219C275.73 401.323 273.876 402.979 271.501 404.188C269.126 405.396 266.387 406.01 263.283 406.031H254.689V417.594L259.564 418.531V424H240.72ZM270.001 424L262.345 404.344L270.564 402.312L277.189 417.625L281.064 418.531V424H270.001ZM254.689 399H262.126C264.751 399 266.71 398.448 268.001 397.344C269.314 396.219 269.97 394.594 269.97 392.469C269.97 390.365 269.324 388.688 268.033 387.438C266.741 386.167 264.824 385.531 262.283 385.531H254.689V399ZM285.531 424V418.531L288.781 418.062L303.25 378.5H312.594L326.969 418.062L330.219 418.531V424H314.719V418.531L317.875 417.969L315.875 411.719H299.875L297.875 417.969L301.031 418.531V424H285.531ZM302.031 405H313.719L308.406 389.406L307.969 388.031H307.781L307.312 389.5L302.031 405ZM354.311 424.656C349.895 424.656 346.051 423.74 342.78 421.906C339.509 420.052 336.978 417.438 335.186 414.062C333.415 410.667 332.53 406.656 332.53 402.031V400.5C332.53 396.083 333.384 392.177 335.092 388.781C336.822 385.365 339.28 382.688 342.467 380.75C345.655 378.812 349.447 377.844 353.842 377.844C356.926 377.844 359.811 378.281 362.499 379.156C365.207 380.031 367.624 381.365 369.749 383.156V394.156H362.967L362.03 387.25C361.342 386.75 360.592 386.323 359.78 385.969C358.967 385.615 358.082 385.344 357.124 385.156C356.186 384.969 355.165 384.875 354.061 384.875C351.478 384.875 349.259 385.51 347.405 386.781C345.551 388.052 344.124 389.854 343.124 392.188C342.145 394.5 341.655 397.25 341.655 400.438V402.031C341.655 405.219 342.176 407.979 343.217 410.312C344.259 412.646 345.738 414.458 347.655 415.75C349.572 417.021 351.842 417.656 354.467 417.656C355.78 417.656 357.092 417.51 358.405 417.219C359.738 416.906 360.947 416.51 362.03 416.031L362.967 409.625H369.749V420.5C367.978 421.667 365.77 422.656 363.124 423.469C360.478 424.26 357.54 424.656 354.311 424.656ZM384.779 424V418.531L389.654 417.594V385.531H381.372L380.872 390.969H373.966V378.5H414.56V390.969H407.622L407.122 385.531H398.779V417.594L403.685 418.531V424H384.779ZM412.934 424V418.531L416.184 418.062L430.652 378.5H439.996L454.371 418.062L457.621 418.531V424H442.121V418.531L445.277 417.969L443.277 411.719H427.277L425.277 417.969L428.434 418.531V424H412.934ZM429.434 405H441.121L435.809 389.406L435.371 388.031H435.184L434.715 389.5L429.434 405ZM467.714 424V418.531L472.589 417.594V385.531H464.307L463.807 390.969H456.901V378.5H497.495V390.969H490.557L490.057 385.531H481.714V417.594L486.62 418.531V424H467.714ZM501.962 424V418.531L506.806 417.594V384.938L501.962 384V378.5H506.806H515.931H521.431V384L515.931 384.938V417H528.775L529.212 410.344H536.181V424H501.962Z"/></clipPath><linearGradient id="paint0_diamond_255_2" x1="0" y1="0" x2="500" y2="500" gradientUnits="userSpaceOnUse">
<stop offset="0.260238" stop-color="#376DA9"/>
<stop offset="1" stop-color="#004F71"/>
</linearGradient>
</defs>
</svg>
